<svg width="200" height="160" viewBox="0 0 200 160" fill="none" xmlns="http://www.w3.org/2000/svg">
  <defs>
    <linearGradient id="emptyGradient" x1="0%" y1="0%" x2="100%" y2="100%">
      <stop offset="0%" style="stop-color:#f8f9fa"/>
      <stop offset="100%" style="stop-color:#e9ecef"/>
    </linearGradient>
  </defs>
  
  <!-- Background -->
  <rect width="200" height="160" rx="8" fill="url(#emptyGradient)"/>
  
  <!-- Empty Box Illustration -->
  <g transform="translate(60, 30)">
    <!-- Box -->
    <rect x="20" y="40" width="40" height="30" rx="2" fill="#dee2e6" stroke="#adb5bd" stroke-width="1"/>
    
    <!-- Box Lines -->
    <line x1="25" y1="45" x2="55" y2="45" stroke="#adb5bd" stroke-width="1"/>
    <line x1="25" y1="50" x2="50" y2="50" stroke="#adb5bd" stroke-width="1"/>
    <line x1="25" y1="55" x2="45" y2="55" stroke="#adb5bd" stroke-width="1"/>
    
    <!-- Floating Elements -->
    <circle cx="15" cy="25" r="3" fill="#667eea" fill-opacity="0.3"/>
    <circle cx="70" cy="35" r="2" fill="#764ba2" fill-opacity="0.4"/>
    <rect x="10" y="75" width="4" height="4" rx="1" fill="#667eea" fill-opacity="0.2"/>
    <rect x="65" y="70" width="3" height="3" rx="1" fill="#764ba2" fill-opacity="0.3"/>
  </g>
  
  <!-- Text Area -->
  <g transform="translate(50, 110)">
    <rect x="0" y="0" width="60" height="4" rx="2" fill="#dee2e6"/>
    <rect x="0" y="8" width="40" height="4" rx="2" fill="#e9ecef"/>
    <rect x="45" y="8" width="15" height="4" rx="2" fill="#e9ecef"/>
  </g>
</svg>